<?xml version="1.0" encoding="utf-8"?>
<!-- Generator: Adobe Illustrator 18.0.0, SVG Export Plug-In . SVG Version: 6.00 Build 0)  -->
<!DOCTYPE svg PUBLIC "-//W3C//DTD SVG 1.1//EN" "http://www.w3.org/Graphics/SVG/1.1/DTD/svg11.dtd">
<svg version="1.1" id="Слой_2" xmlns="http://www.w3.org/2000/svg" xmlns:xlink="http://www.w3.org/1999/xlink" x="0px" y="0px"
	 viewBox="226 0 1135 1200" enable-background="new 226 0 1135 1200" xml:space="preserve">
<path fill="#000000"    d="M768.6,735.2c-2.9-14.7-32.5-106.2-41.2-118.9
	c-8.8-12.7-36.3-52.1-66.8-68.8s-92.4-18.7-120-18.7c-27.6,0-61.9-7.8-80.6-27.6c-18.7-19.6-53-14.7-59.9-13.8s6.9-18.7,14.7-20.7
	s-23.6-14.7-31.4-9.8c-7.8,4.9,7.8-11.8,7.8-11.8l-25.6,11.8c0,0-0.9-31.4,12.7-32.5c13.7-1.1,8.9-16.7,8.9-16.7s-24.5-4.9-26.5,0
	s10.9-15.8,19.6-12.7c8.8,3-8.9-13.8-13.8-16.7c-4.9-2.9-26.5-7.8-33.4-13.8s-18.7-4-24.5-5.8c-5.8-1.9-15.8,0-21.6,4.9
	c-5.8,4.9-18.7,21.6-27.6,16.7c-8.9-4.9-15.8-7.8-15.8-7.8l-6,10.7c0,0-7.8-15.8,0-30.5c7.8-14.7,13.8-31.4,25.6-37.4
	c11.8-6,25.6-10.9,35.4-10.9c9.8,0,25.6,0,28.5,0c2.9,0-7.8-5.8-9.8-9.8s-5.8-0.9-20.7,0c-14.9,0.9-32.5,2.9-37.4-8
	c-4.9-10.9-5.8-9.8-5.8-9.8h-19.2c0,0,0.5-16.7,10.3-20.7s15.8-8.9,15.8-8.9s0.9-13.3,20.7-14.3c19.8-1.1,39.4-3.4,50.1-1.5
	c10.9,2,19.6,12.7,27.6,18.7c8,6,12.7-0.9,10.9-6.9c-2-5.8-9.3-4.2-16.2-13s-15.2-8.8-17.2-24.4c-0.9-7.4,2-11.8,2-11.8v-13.8h16.7
	c0,0,17.6-7.8,32.5,0s35.4,30.5,37.4,40.3s11.8,24.5,11.8,24.5s21.6-2.9,36.3,7.8c14.7,10.9,19.6,18.7,19.6,18.7s9.8,2.9,13.8,0
	s5.8-13.8,12.7-14.7c6.9-0.9,11.8,2.9,11.8,2.9l4-10.9c0,0,15.8,8.9,14.7,20.7c-0.9,11.8,18.7,11.8,5.8,34.5
	c-12.7,22.7-27.6,26.5-31.4,24.5c-4-2-6.9,4.9-6.9,4.9s6.9,14.7,18.7,35.4c11.8,20.7,12.7,31.4,32.5,32.5
	c19.6,0.9,69.7,4.9,83.5,2.9c13.8-2,37.4-0.9,45.2-4.9c7.8-4,11.8-10.9,11.8-10.9s2-27.6,0.9-34.5c-0.9-6.9,4.9-0.8-6.9-6.6
	c-11.8-5.8-39.1-14.1-32.5-45.5c4.2-19.8,22.7-24.9,22.7-24.9s-4.9,13.8,4,21.6s10.9-0.9,10.9-0.9l28.5-5.8l0.9-15.8
	c0,0,7.8,4.9,7.8,7.8c0,2.9-2-18.7-2-18.7s2.9,2,10.3,10.9s17.1,18.7,16.2,4.9c-0.9-13.8-6.9-29.4-6.9-29.4s15.8,6.9,17.6,18.7
	c2,11.8,6.9,18.7,11.8,14.7s0-21.6,0-21.6s12.7,10.9,14.7,17.6c2,6.9,9-6.2,9-6.2l34.3,13.1c0,0,0.9,7.8,12.7,6.9
	c11.8-0.9,19.9-15.6,13-21.5c-6.9-5.8-19-11.9-19-11.9s33.4-11.8,44.3,4.9s8.9,42.3,0,53c-8.9,10.7-17.6,17.6-5.8,21.6
	s25.6,10.9,35.4,4.9c9.8-6,31.4-11.8,35.4-12.7c4-0.9,14.7-5.8,15.8-18.7c0.9-12.7,0-19.6,0-19.6s9.8,12.7,8.9,19.6
	c-0.9,6.9,9.8,10.9,12.7,2c2.9-8.9-0.9-24.5-5.8-24.5s24.5-5.8,24.5,15.8c0,21.6,8.9,14.7,8.9,14.7s8.9-2.9,7.8-11.8
	c-0.9-8.9,0-11.8,7.8-0.9s15.8,7.8,15.8,7.8s10.9-10.9,6.9-23.6c-4-12.7-7.8-24.5-7.8-29.4s6.6-18.7,8.8-26.5c2.1-7.8,6-22.7,6-22.7
	s-19.6-2-35.4-12.7c-15.8-10.7-20.7-25.7-21.6-41.2c-0.9-15.8,8.9-30.5,22.7-32.5c13.8-2,26.5-7.8,34.5-13.8s12.7-18.7,10.9-23.6
	c-1.9-4.9-10.3-29.4-8.4-40.3c2-10.9-0.5-29.4,16.2-37.4c16.7-7.8,43.2-8.9,43.2-8.9s5.8-3.7,19.6-0.3c9.1,2.4,10.9,13,10.9,13
	s-11.8-6.9-12.7,6c-0.8,10.1,7.8,12.7,2.9,21.6c-4.9,8.9-10.9,20.7-10.9,20.7s10.9,5.8,15.8,4c4.9-2,15.8-32.5,26.5-43.2
	c10.7-10.7,36.3-20.7,59-5.8c3.7,2.4,20.7,4,27.6,15.8s0,23.6,0,23.6s-5.8-16.7-11.8-12.7c-3.7,2.4,2,10.9-4,17.6
	c-6,6.8-12.7,15.8-22.7,14.7c-9.8-0.9-16.7,4.9-16.7,4.9l4.9,16.7c0,0,17.6-5.8,29.4-8.9c11.8-2.9,40.3-4,47.2,2.9
	c6.9,6.9,22.7,25.6,22.7,30.5s1.7,10.3,2,13.8c1.1,19.2-6.9,25.6-6.9,25.6s-0.5-10.9-7.8-19.6c0,0,1.1,6.5-11.8,5.8
	c-11.8-0.5-29.4-4.9-29.4-4.9s-20.7,29.4-27.6,35.4c-6.9,5.8,0,7.8,4.9,21.6c4.9,13.8-5.8,17.6-5.8,17.6s4,4.9,10.9,4
	c6.9-0.9,15.8-8.9,15.8-8.9s-1.3,11.8-7.8,19.6c-6,7.2-12.7,11.8-12.7,11.8s5.8,0.9,11.8,0c5.8-0.9,17-1.6,17-1.6l-20.7,19.6
	l0.8,7.4l2.9,17.6l-6.9-2c0,0-4.4,0.3-1.1,16.8c3.3,15.9-2,23.5-2,23.5l-4.9-10.9c0,0-10.9,5.8-10.9,11.8c0,5.8,2,15.8,2,15.8h-6.9
	v22.7c0,0,2.9,0.9-11.8-2.9s-28.5,8.9-33.4,13.8c-4.9,4.9-24.5,21.6-32.5,26.5c-7.8,4.9-52.1,29.4-64.8,28.5s-17,7.6-18.7,19.6
	c-3.3,23.5,12.7,67.9,24.5,136.7s17.6,145.5,23.6,183.9c5.8,38.3,9.8,103.3,9.8,106.2c0,2.9,2.9,9.8,2.9,9.8h22.4l-0.9,20.7
	l39.4,4.9l2,24.5h42.3l0.9,16.7l48.1-2l0.9,13.8l40.3-5.8v9.8l28.5,5.8c0,0-44.3,23.6-80.6,34.5c-36.3,10.9-63,10.9-75.7,9.8
	c-12.7-1.1-18.7,0.4-18.7,0.4l-0.9,24.1c0,0,29.4,24.5,41.2,40.3c11.8,15.8,16.7,26.5,16.7,26.5s26,11.8,29,26.5
	c3,14.7-6.4,37.4-19.2,34.3c-12.7-2.9-19.6,0.3-19.6,0.3s-2,9.7-17.6,10.6c-15.8,0.9-34.5-5.8-34.5-5.8s-7.8,10.9-29.4,10.9
	s-45.2-6-49.2-10.9s-17.6,2.9-43.2-11.8c-25.6-14.7-28.9-25.9-23.6-40.3c6.9-19,12.7-39.4,11.8-57c-0.9-17.6,5.8-22.7-8.9-39.4
	c-14.7-16.7-20.7-22.7-20.7-22.7s-23.6,4-52.1,4s-65.9-8.9-65.9-8.9s-11.8,4.9-21.6,15.8c-9.8,10.9-17.6,35.4-17.6,35.4
	s4.4,15.8,8.4,38.3c4,22.5,9.7,37.1,0.5,46.3c-13.8,13.7-28.5,13.8-28.5,13.8s-8.4,18.7-40,18.7s-56.2-4.9-56.2-4.9
	s-11.8,7.8-29.4,4c-17.6-4-26.5-15.8-25.6-12.7c0.9,3-7.8,10.9-24.5,4.9c-16.7-5.8-28.2-34.2-12.7-47.2c8.5-7,13.3-12.1,21.6-14.7
	c5.4-1.7,6.9-20.7,25.6-36.3c18.7-15.8,30.5-28.5,30.5-28.5s-5.8-36.3,14.7-71.7c20.7-35.4,48.1-73.7,48.1-73.7s-2.9-42.3-9.8-63
	C769.8,808.3,771.5,750,768.6,735.2z"/>
</svg>
