<?xml version="1.0" standalone="no"?>
<!DOCTYPE svg PUBLIC "-//W3C//DTD SVG 20010904//EN"
 "http://www.w3.org/TR/2001/REC-SVG-20010904/DTD/svg10.dtd">
<svg version="1.0" xmlns="http://www.w3.org/2000/svg"
 width="2400.000000pt" height="2400.000000pt" viewBox="0 0 2400.000000 2400.000000"
 preserveAspectRatio="xMidYMid meet">
<metadata>
Created by potrace 1.11, written by Peter Selinger 2001-2013
</metadata>
<g transform="translate(0.000000,2400.000000) scale(0.100000,-0.100000)"
fill="#000000" stroke="none">
<path d="M18286 15963 c-1 -2 -56 -5 -122 -8 -120 -6 -134 -7 -234 -19 -106
-13 -125 -16 -200 -31 -121 -25 -141 -29 -200 -45 -25 -7 -52 -14 -60 -15 -31
-7 -176 -58 -217 -76 -24 -11 -45 -19 -48 -19 -13 0 -182 -84 -260 -131 -91
-53 -233 -152 -296 -205 -53 -45 -251 -246 -284 -289 -16 -21 -47 -61 -67 -89
-21 -28 -41 -56 -46 -62 -32 -38 -193 -328 -197 -354 0 -3 -8 -21 -17 -40 -38
-82 -117 -322 -133 -400 -2 -8 -8 -35 -15 -60 -12 -45 -14 -52 -24 -120 -3
-19 -8 -46 -11 -60 -3 -14 -7 -43 -10 -65 -2 -22 -7 -58 -10 -80 -11 -80 -14
-112 -21 -235 -13 -210 -7 -526 11 -675 2 -16 6 -52 9 -80 3 -27 8 -61 10 -75
5 -25 10 -55 21 -135 4 -22 9 -47 12 -55 3 -8 7 -28 10 -44 3 -17 14 -64 25
-105 11 -42 21 -83 23 -91 2 -8 4 -15 5 -15 1 0 3 -9 5 -20 2 -10 8 -28 13
-40 5 -11 27 -67 48 -125 51 -143 199 -432 235 -460 3 -3 12 -15 18 -28 7 -13
19 -31 26 -40 8 -9 43 -53 78 -97 106 -132 286 -303 407 -385 19 -13 37 -27
40 -30 3 -3 14 -10 25 -17 11 -7 50 -30 87 -52 36 -23 71 -41 76 -41 6 0 12
-4 14 -9 4 -10 112 -61 213 -101 39 -15 79 -31 90 -35 11 -5 22 -9 25 -10 3 0
34 -11 70 -22 91 -31 271 -75 278 -69 3 3 10 2 16 -3 6 -5 31 -11 56 -14 25
-3 52 -8 60 -11 15 -5 74 -12 185 -22 33 -3 80 -7 105 -9 183 -18 569 -4 805
30 90 13 99 14 200 35 28 6 59 12 70 14 98 19 349 95 430 131 42 18 79 29 88
27 4 -1 7 1 7 6 0 4 15 13 33 20 135 55 517 270 539 305 3 6 6 504 6 1107 l1
1097 -910 0 c-500 0 -909 -3 -910 -6 -1 -3 -2 -131 -3 -283 -1 -180 3 -278 9
-279 5 0 260 -1 565 -2 l555 -2 0 -58 c0 -31 2 -57 5 -57 6 0 2 -116 -4 -142
-2 -10 -1 -18 2 -18 7 0 5 -112 -2 -142 -2 -10 -1 -18 2 -18 7 0 5 -112 -2
-142 -2 -10 -1 -18 2 -18 4 0 6 -19 4 -42 -3 -48 -3 -48 -3 -138 0 -36 0 -96
0 -135 0 -38 0 -74 1 -80 1 -5 1 -28 1 -50 0 -22 -1 -76 -1 -120 0 -233 0
-231 -26 -225 -4 1 -10 -2 -13 -7 -9 -13 -81 -49 -175 -88 -165 -68 -403 -124
-596 -140 -41 -3 -97 -8 -125 -11 -69 -7 -388 -6 -455 0 -30 3 -84 9 -120 12
-62 6 -74 8 -130 19 -14 2 -41 7 -60 10 -49 8 -205 50 -270 73 -87 31 -235 97
-250 112 -3 3 -21 13 -41 23 -54 27 -195 136 -265 203 -73 71 -156 175 -216
269 -47 75 -148 278 -148 298 0 7 -4 17 -8 22 -5 6 -18 44 -31 85 -13 41 -27
86 -31 100 -11 33 -41 166 -46 209 -3 19 -7 38 -10 43 -3 5 -8 30 -10 56 -5
56 -11 115 -18 162 -17 116 -23 477 -11 625 3 39 7 97 9 130 5 74 14 145 27
210 5 28 11 64 13 80 17 130 101 392 176 547 40 84 137 246 160 268 3 3 30 34
60 70 48 57 112 121 171 170 52 44 60 50 69 50 6 0 10 5 10 10 0 6 6 10 14 10
8 0 16 4 18 8 7 17 240 144 263 143 2 0 28 10 57 23 59 26 201 68 273 81 11 2
45 8 75 14 87 16 104 19 187 28 98 10 473 10 573 0 72 -7 89 -9 150 -22 14 -2
41 -7 60 -10 86 -14 106 -18 118 -28 6 -5 12 -7 12 -4 0 3 24 -1 53 -9 28 -8
59 -16 67 -19 23 -5 113 -35 135 -44 11 -5 36 -15 55 -22 68 -24 235 -102 242
-113 4 -6 8 -8 8 -3 0 9 87 -39 183 -100 37 -24 72 -43 76 -43 5 0 11 -3 13
-8 2 -4 35 -30 73 -57 39 -27 100 -73 136 -102 36 -29 68 -53 70 -53 2 0 4
164 3 364 0 392 2 376 -54 404 -25 12 -72 39 -100 57 -8 5 -17 10 -20 10 -3 1
-25 12 -50 25 -55 30 -299 140 -310 140 -4 0 -25 8 -46 17 -22 9 -44 18 -51
19 -6 1 -47 13 -90 27 -68 21 -109 33 -148 43 -5 1 -46 11 -90 22 -73 18 -118
28 -182 38 -13 2 -33 6 -45 8 -13 2 -45 7 -73 11 -27 3 -61 8 -74 10 -32 5
-196 18 -243 19 -21 1 -38 3 -38 6 0 5 -249 7 -254 3z"/>
<path d="M3529 15868 c-1 -2 -2 -1154 -3 -2561 -1 -2267 1 -2560 14 -2566 19
-10 1587 -6 1745 4 182 11 257 17 355 30 30 4 66 8 80 10 66 8 116 16 130 20
8 2 33 7 55 10 22 3 87 17 145 31 58 13 114 26 125 28 38 7 190 55 270 85 139
52 170 65 177 76 4 5 8 7 8 3 0 -8 141 64 234 121 37 22 70 41 72 41 2 0 12 7
22 15 9 9 53 43 97 77 106 82 305 283 305 308 0 5 4 10 9 12 10 4 107 147 138
203 11 22 30 56 40 75 25 45 95 198 97 214 1 6 4 16 7 21 6 9 40 107 45 130 2
6 10 35 19 65 18 63 23 82 30 111 2 11 6 28 9 37 3 9 8 31 11 47 2 17 7 41 10
55 8 42 23 129 30 185 15 110 28 287 29 392 1 40 5 73 9 73 5 0 5 5 1 12 -11
17 -11 78 -1 78 4 0 5 5 2 11 -4 6 -9 72 -11 147 -3 154 -15 298 -30 392 -2
14 -7 45 -10 70 -9 67 -11 77 -33 180 -30 135 -31 143 -37 152 -3 4 -7 18 -9
30 -26 136 -162 442 -262 590 -18 26 -33 52 -33 57 0 5 -7 11 -15 15 -8 3 -15
12 -15 20 0 8 -3 16 -7 18 -5 2 -26 25 -47 52 -64 79 -185 197 -271 264 -44
34 -91 71 -105 82 -14 11 -30 20 -37 20 -6 0 -13 4 -15 8 -8 20 -190 118 -333
179 -77 34 -240 91 -276 98 -10 2 -26 8 -36 13 -10 6 -34 13 -53 16 -19 3 -51
10 -70 16 -42 13 -112 29 -160 36 -19 3 -51 9 -70 14 -19 4 -42 8 -50 9 -15 0
-40 4 -91 14 -44 9 -179 24 -279 32 -36 3 -85 8 -110 11 -45 6 -1849 17 -1851
12z m1871 -582 c30 -3 64 -7 75 -9 12 -3 50 -8 85 -11 62 -7 105 -13 105 -16
0 -1 11 -3 25 -5 22 -3 151 -30 190 -40 62 -16 214 -66 255 -84 236 -107 331
-168 480 -310 158 -150 302 -393 374 -631 25 -81 58 -214 65 -260 3 -19 7 -44
10 -55 3 -18 8 -49 21 -145 24 -170 24 -692 1 -816 -2 -11 -7 -46 -10 -79 -4
-33 -9 -67 -11 -75 -2 -8 -7 -28 -10 -45 -2 -16 -7 -39 -9 -50 -3 -11 -12 -53
-20 -93 -9 -40 -21 -82 -26 -93 -6 -10 -9 -19 -6 -19 2 0 -9 -37 -25 -82 -36
-101 -129 -298 -141 -298 -4 0 -7 -3 -5 -8 9 -27 -203 -276 -303 -357 -52 -41
-148 -105 -158 -105 -6 0 -12 -4 -14 -8 -3 -8 -158 -86 -233 -117 -44 -18
-157 -55 -188 -61 -11 -2 -34 -8 -52 -14 -18 -6 -43 -13 -56 -15 -13 -3 -35
-7 -49 -10 -43 -9 -74 -15 -110 -21 -19 -4 -42 -8 -50 -9 -8 -2 -44 -6 -80
-10 -36 -4 -76 -9 -90 -11 -91 -11 -327 -17 -743 -18 l-477 -1 0 1997 0 1996
563 -3 c309 -2 587 -6 617 -9z"/>
<path d="M14248 14675 c-1 -2 -39 -6 -83 -9 -44 -4 -93 -9 -110 -11 -126 -22
-205 -38 -235 -47 -19 -6 -36 -11 -37 -10 -2 1 -32 -9 -67 -22 -35 -14 -67
-22 -70 -19 -3 4 -6 1 -6 -5 0 -7 -6 -12 -13 -12 -17 0 -200 -93 -217 -110 -3
-3 -30 -24 -60 -46 -62 -47 -133 -114 -170 -163 -14 -17 -33 -41 -42 -52 -27
-33 -95 -170 -118 -239 -21 -64 -26 -81 -35 -130 -3 -14 -7 -36 -11 -50 -12
-52 -11 -333 2 -409 16 -92 64 -251 76 -251 4 0 7 -3 6 -7 -2 -8 33 -84 42
-93 3 -3 24 -30 45 -60 92 -126 238 -232 446 -321 104 -45 319 -115 379 -124
8 -2 56 -12 105 -24 226 -53 262 -61 295 -67 19 -3 38 -8 43 -11 4 -2 19 -6
33 -9 14 -3 51 -12 82 -20 32 -8 64 -17 72 -19 8 -2 15 -4 15 -5 0 -1 7 -3 15
-5 90 -19 270 -90 381 -151 41 -22 127 -112 152 -158 84 -158 82 -386 -6 -527
-33 -54 -87 -111 -143 -150 -27 -19 -52 -38 -55 -42 -3 -5 -9 -8 -12 -8 -4 0
-28 -9 -54 -20 -112 -49 -245 -80 -400 -95 -127 -12 -416 -5 -493 11 -14 3
-45 7 -70 10 -25 2 -56 6 -70 10 -14 3 -41 7 -60 10 -19 2 -35 4 -35 5 0 1 -7
3 -15 5 -8 1 -35 8 -60 15 -25 7 -55 14 -68 16 -13 3 -58 16 -100 31 -42 14
-81 26 -87 28 -12 2 -13 3 -165 63 -63 24 -164 68 -223 97 -59 28 -109 49
-111 46 -2 -3 -3 -150 -2 -325 l1 -319 55 -18 c56 -18 270 -79 299 -84 9 -2
16 -4 16 -5 0 -1 7 -3 16 -5 14 -2 94 -21 184 -41 11 -3 31 -7 45 -10 94 -18
138 -26 160 -28 42 -5 124 -17 150 -22 156 -29 568 -34 762 -9 24 3 59 8 78
10 50 5 90 13 167 31 38 9 75 17 83 19 8 2 15 4 15 5 0 1 7 3 16 5 90 17 377
147 409 184 3 3 17 12 33 20 15 8 27 18 27 23 0 4 4 8 9 8 21 0 221 194 221
215 0 3 9 16 20 27 34 37 117 218 139 305 12 45 25 110 28 145 13 115 6 328
-11 380 -3 7 -8 30 -11 51 -3 21 -10 48 -17 60 -6 12 -10 22 -8 22 7 0 -23 77
-47 122 -14 27 -32 60 -40 74 -7 15 -20 32 -28 39 -8 7 -15 17 -15 22 0 20
-152 158 -232 211 -97 64 -285 157 -348 173 -3 0 -12 3 -20 6 -91 34 -261 85
-309 93 -19 3 -38 8 -42 11 -4 2 -27 8 -51 13 -24 5 -86 19 -138 30 -52 12
-108 24 -125 27 -16 3 -44 10 -62 15 -17 6 -44 12 -60 15 -15 3 -46 10 -68 17
-22 6 -44 12 -50 12 -15 2 -158 47 -170 54 -5 3 -12 6 -15 6 -59 7 -238 99
-295 151 -27 25 -78 93 -92 124 -68 143 -40 385 56 500 46 55 58 66 96 96 40
31 131 78 138 72 2 -2 10 2 18 8 14 11 63 29 110 40 52 13 166 35 204 40 69
10 447 12 510 4 33 -5 89 -11 124 -14 35 -4 66 -8 70 -10 3 -2 26 -7 51 -10
47 -6 237 -53 280 -68 8 -3 51 -18 95 -33 87 -30 114 -41 223 -91 40 -19 75
-34 77 -34 3 0 5 133 5 295 0 270 -1 295 -17 304 -28 14 -215 75 -268 87 -5 1
-30 7 -55 14 -25 7 -52 14 -60 15 -49 8 -96 17 -101 21 -4 2 -28 6 -55 9 -47
6 -76 10 -119 19 -11 2 -51 7 -90 11 -38 3 -88 8 -110 11 -48 5 -542 14 -547
9z"/>
<path d="M8606 14566 c6 -22 40 -116 54 -151 5 -11 27 -72 50 -135 23 -63 45
-124 50 -135 5 -11 37 -94 70 -185 62 -166 89 -240 111 -295 7 -16 13 -32 13
-35 3 -9 38 -104 47 -125 4 -11 22 -58 39 -105 17 -47 35 -94 40 -105 4 -11
18 -47 30 -80 12 -33 26 -69 30 -80 5 -11 32 -83 60 -160 53 -143 106 -284
120 -320 4 -11 17 -45 28 -75 33 -91 93 -251 118 -315 12 -33 50 -134 84 -225
34 -91 75 -199 90 -240 16 -41 36 -93 43 -115 8 -22 28 -76 45 -120 66 -173
94 -250 96 -260 1 -5 5 -15 8 -21 4 -6 19 -44 33 -85 14 -41 30 -83 35 -94 8
-20 41 -106 100 -265 18 -47 36 -90 40 -95 11 -14 846 -14 858 0 5 6 34 80 66
165 31 85 63 171 71 190 17 45 27 72 31 85 3 11 131 352 141 375 3 8 7 17 8
20 1 3 6 16 12 30 6 14 18 45 26 70 9 25 79 214 157 420 78 206 143 380 144
385 1 6 10 27 19 49 9 21 17 41 17 44 0 7 162 437 191 507 4 11 51 137 104
280 53 143 135 361 182 485 46 124 86 233 88 243 2 9 7 23 12 30 4 6 8 14 9
17 0 3 6 19 13 35 7 17 14 35 15 40 2 6 6 17 9 25 20 50 127 340 127 343 0 2
-151 3 -335 3 l-334 0 -12 -30 c-6 -17 -13 -35 -14 -41 -2 -5 -16 -46 -33 -90
-33 -88 -43 -118 -44 -125 0 -3 -5 -14 -11 -25 -6 -11 -12 -22 -12 -25 -3 -18
-29 -87 -38 -97 -5 -7 -7 -13 -3 -13 4 0 -3 -18 -14 -40 -11 -22 -18 -40 -16
-40 4 0 -10 -40 -34 -95 -10 -24 -22 -56 -26 -70 -4 -16 -131 -356 -145 -390
-7 -16 -13 -32 -14 -35 -1 -3 -5 -13 -9 -22 -4 -9 -9 -22 -10 -30 -3 -12 -15
-44 -33 -88 -3 -8 -7 -19 -9 -25 -4 -18 -94 -259 -104 -280 -6 -11 -18 -45
-28 -75 -19 -56 -116 -318 -132 -355 -16 -39 -91 -240 -95 -256 -2 -8 -11 -33
-20 -55 -9 -21 -18 -43 -19 -49 -2 -5 -9 -23 -15 -40 -7 -16 -14 -34 -15 -40
-2 -5 -6 -17 -9 -25 -3 -8 -62 -168 -132 -355 -69 -187 -133 -357 -142 -378
l-16 -37 -49 132 c-27 73 -58 158 -70 188 -11 30 -29 80 -40 110 -12 30 -24
64 -29 75 -20 49 -71 187 -73 198 -1 7 -7 21 -13 32 -6 11 -12 23 -12 27 -2
11 -6 21 -52 143 -23 61 -42 115 -43 120 -2 6 -10 27 -19 49 -9 21 -17 44 -17
52 0 7 -4 15 -9 18 -4 3 -12 20 -16 38 -4 18 -9 35 -10 38 -1 3 -7 19 -14 35
-6 17 -19 50 -28 75 -9 25 -20 49 -25 54 -4 6 -8 17 -8 25 0 12 -17 60 -55
156 -5 11 -9 22 -10 25 -1 3 -4 12 -8 20 -5 13 -163 439 -217 585 -10 28 -22
59 -26 70 -4 11 -8 22 -9 25 0 3 -11 32 -24 65 -13 33 -39 103 -58 155 -32 85
-58 155 -76 200 -23 60 -80 218 -82 231 -2 9 -8 25 -14 35 -20 34 -60 152 -54
158 4 3 1 6 -5 6 -7 0 -12 8 -12 18 -1 9 -7 28 -15 42 l-13 25 -331 1 c-331 1
-331 1 -325 -20z"/>
<path d="M6655 10022 c-3 -3 -5 -344 -5 -759 l0 -753 43 -1 c23 0 63 -1 90 -2
l47 -2 1 55 c1 30 1 66 0 80 l-2 25 21 -25 c22 -28 72 -79 92 -95 36 -29 122
-56 213 -67 41 -5 150 17 200 41 54 25 171 122 160 133 -2 2 7 17 20 32 13 15
29 45 36 65 6 20 16 42 22 49 5 6 7 12 3 12 -3 0 -1 12 5 26 17 48 23 97 23
209 1 197 -29 305 -118 420 -57 75 -142 133 -221 151 -50 12 -198 8 -240 -6
-22 -7 -40 -11 -40 -9 0 2 -7 -2 -15 -9 -8 -7 -34 -26 -57 -42 -24 -17 -56
-48 -72 -70 l-29 -41 -1 283 c0 156 0 288 -1 294 0 12 -164 17 -175 6z m613
-577 c92 -50 170 -193 168 -308 -1 -20 1 -37 4 -37 12 0 -5 -185 -20 -224 -5
-15 -7 -26 -5 -26 11 0 -58 -115 -84 -141 -52 -52 -100 -72 -179 -75 -198 -8
-312 136 -317 401 -3 176 30 283 115 365 82 81 217 100 318 45z"/>
<path d="M13749 10012 c-4 -87 -1 -1493 3 -1498 6 -5 57 -7 134 -5 l41 1 0
755 0 755 -21 4 c-12 2 -51 4 -88 4 -57 0 -68 -3 -69 -16z"/>
<path d="M3450 9958 c0 -5 23 -98 50 -208 28 -110 51 -207 53 -217 1 -10 5
-22 8 -28 6 -9 17 -57 25 -105 2 -8 19 -76 39 -150 19 -74 37 -146 40 -160 4
-24 129 -520 133 -530 2 -3 5 -15 8 -27 5 -16 14 -23 33 -24 14 0 70 -2 123
-2 l97 -2 47 190 c61 251 94 384 100 415 2 14 7 32 10 40 3 8 8 26 10 38 3 13
12 49 20 80 8 32 17 66 19 76 14 64 58 246 66 273 6 17 12 42 15 55 14 71 22
92 27 78 3 -8 24 -91 47 -185 22 -93 49 -204 60 -245 10 -41 21 -86 24 -100 3
-14 7 -34 10 -45 8 -32 37 -148 41 -165 6 -25 45 -184 49 -200 3 -8 12 -46 20
-85 9 -38 19 -78 21 -87 7 -26 14 -58 21 -93 3 -16 7 -31 8 -33 3 -3 212 -5
242 -3 9 1 59 181 89 321 2 8 4 15 6 15 1 0 3 9 4 20 1 11 9 44 18 73 9 28 13
52 10 52 -3 0 0 7 7 15 7 9 10 18 7 22 -3 3 1 22 9 42 8 20 14 37 14 39 -1 1
1 15 4 30 4 15 8 36 11 47 2 11 8 35 14 54 6 18 10 36 9 40 -1 3 1 13 4 21 8
19 39 136 44 164 2 12 24 100 49 196 25 96 47 186 50 200 2 14 9 41 15 60 5
19 10 37 10 40 0 8 -187 6 -195 -2 -4 -4 -23 -69 -42 -145 -18 -76 -36 -145
-38 -153 -7 -27 -36 -145 -39 -160 -2 -8 -9 -33 -14 -55 -6 -22 -13 -51 -16
-65 -4 -21 -37 -151 -50 -200 -9 -33 -48 -197 -53 -219 -2 -14 -7 -29 -11 -35
-3 -6 -7 -17 -7 -26 -1 -8 -6 -31 -10 -50 -5 -19 -10 -38 -11 -42 -1 -5 -3
-11 -4 -15 -1 -5 -3 -12 -4 -18 -3 -22 -19 -19 -23 4 -2 14 -11 52 -19 85 -9
34 -18 69 -20 79 -2 9 -6 25 -8 35 -2 9 -23 91 -46 182 -23 91 -44 172 -45
180 -2 8 -4 15 -5 15 -1 0 -3 11 -6 25 -2 14 -16 70 -30 124 -14 55 -28 109
-31 120 -8 38 -11 51 -13 51 -1 0 -3 9 -5 20 -1 11 -8 40 -14 65 -6 25 -13 52
-15 60 -2 8 -9 35 -16 60 -7 25 -13 50 -14 57 -1 7 -6 16 -10 20 -9 10 -200
13 -215 4 -6 -4 -12 -20 -15 -37 -2 -16 -6 -36 -9 -44 -4 -8 -13 -44 -22 -80
-8 -36 -17 -74 -20 -84 -2 -11 -37 -148 -76 -305 -39 -157 -72 -293 -74 -301
-2 -8 -15 -62 -30 -120 -15 -58 -29 -112 -30 -120 -2 -8 -4 -15 -5 -15 -1 0
-4 -11 -7 -25 -2 -14 -6 -32 -8 -40 -2 -8 -4 -21 -4 -27 -1 -7 -5 -13 -9 -13
-5 0 -14 30 -21 68 -8 37 -16 71 -19 77 -3 5 -7 16 -8 25 -1 13 -11 54 -29
120 -5 20 -35 140 -40 161 -2 9 -8 33 -13 53 -6 20 -8 36 -5 36 3 0 0 7 -7 15
-7 9 -10 18 -8 21 3 3 -1 26 -9 52 -8 26 -17 56 -19 67 -5 26 -8 42 -22 90 -6
22 -13 51 -16 65 -2 14 -14 63 -26 110 -23 88 -28 109 -36 149 -3 14 -7 28
-10 33 -3 5 -8 21 -10 35 -3 15 -8 30 -10 33 -10 9 -194 7 -194 -2z"/>
<path d="M8576 9962 c-3 -3 -6 -331 -6 -728 l0 -724 48 -1 c142 -3 475 1 527
6 382 40 578 207 641 545 10 54 11 278 2 340 -10 69 -59 230 -69 230 -4 0 -11
11 -16 25 -11 34 -90 125 -138 161 -36 27 -144 85 -170 91 -5 1 -35 9 -65 17
-67 18 -103 26 -155 32 -59 7 -593 12 -599 6z m484 -162 c0 -3 18 -4 41 -4
115 5 286 -63 359 -142 50 -54 95 -149 114 -239 27 -130 3 -434 -38 -478 -6
-7 -12 -19 -14 -27 -5 -20 -49 -79 -81 -109 -104 -94 -227 -127 -491 -130
l-180 -2 0 564 c0 310 2 566 4 568 6 6 286 5 286 -1z"/>
<path d="M21268 9912 c-23 -2 -35 -8 -33 -15 10 -26 12 -88 3 -93 -4 -3 -6 -9
-3 -14 3 -4 5 -34 5 -67 0 -32 0 -73 0 -90 1 -32 0 -33 -47 -32 -89 2 -83 7
-83 -71 0 -51 4 -70 13 -69 6 1 35 1 63 0 l52 -1 1 -37 c0 -21 3 -50 5 -66 2
-15 -1 -30 -6 -33 -4 -3 -6 -10 -2 -15 3 -5 5 -51 4 -102 -1 -50 -1 -99 -1
-107 0 -8 0 -69 0 -135 0 -66 0 -124 0 -130 0 -5 3 -32 7 -60 4 -27 7 -58 7
-67 1 -10 5 -18 9 -18 4 0 8 -8 8 -18 0 -27 46 -88 85 -112 36 -22 82 -37 140
-45 42 -6 284 -10 289 -4 6 6 8 38 7 95 l-1 52 -117 0 c-182 -1 -223 17 -242
101 -13 57 -12 689 1 697 5 3 88 6 184 5 l174 0 1 47 c1 50 -1 85 -6 90 -2 2
-83 4 -182 5 l-178 2 -5 154 -5 154 -55 1 c-30 0 -72 0 -92 -2z"/>
<path d="M5740 9610 c-73 -18 -150 -50 -150 -62 0 -4 -6 -8 -14 -8 -23 0 -132
-125 -159 -182 -46 -97 -64 -184 -65 -304 -1 -64 5 -133 13 -163 7 -28 12 -51
10 -51 -2 0 12 -32 31 -71 39 -81 115 -166 183 -206 25 -15 48 -28 51 -29 3 0
17 -6 31 -12 58 -24 166 -43 244 -44 47 0 171 15 220 27 33 9 68 17 79 20 10
2 38 12 62 21 45 17 46 19 46 89 0 14 0 41 -1 59 l-1 35 -37 -15 c-21 -8 -45
-19 -55 -24 -21 -12 -131 -41 -183 -48 -51 -8 -191 -6 -230 2 -151 33 -250
147 -271 314 -5 41 -4 52 7 53 8 0 193 0 412 0 298 0 397 3 398 12 4 37 1 139
-5 182 -8 60 -45 185 -55 185 -3 0 -12 14 -19 30 -22 50 -143 157 -187 167 -5
1 -30 10 -55 19 -62 23 -216 25 -300 4z m249 -151 c41 -13 90 -45 109 -71 7
-9 19 -23 27 -31 19 -20 55 -129 55 -170 l0 -34 -319 0 -319 -1 4 31 c15 105
84 211 164 253 75 39 198 49 279 23z"/>
<path d="M10455 9619 c-70 -12 -89 -18 -151 -49 -204 -100 -309 -345 -271
-635 18 -144 89 -266 202 -351 39 -29 105 -64 135 -71 8 -2 20 -5 25 -7 41
-12 66 -17 103 -20 23 -2 45 -6 48 -9 3 -3 17 -2 30 3 14 6 26 6 29 -1 4 -5
10 -7 15 -4 4 3 38 7 76 11 37 3 71 7 74 9 4 2 22 7 41 10 93 16 193 59 185
81 -3 8 0 14 7 14 7 0 8 3 2 8 -5 4 -10 33 -9 65 0 31 0 57 -1 57 -2 0 -24
-10 -51 -22 -27 -12 -51 -23 -54 -23 -3 -1 -30 -9 -60 -18 -86 -26 -128 -32
-225 -30 -107 1 -134 6 -202 39 -102 49 -165 149 -187 297 l-6 37 53 1 c28 0
215 0 414 1 l361 0 5 24 c2 13 2 26 0 28 -3 3 -6 40 -8 83 -2 43 -10 103 -19
133 -19 71 -54 150 -66 150 -6 0 -10 6 -10 13 0 24 -94 106 -158 137 -83 41
-221 57 -327 39z m240 -174 c86 -41 152 -142 157 -241 l3 -49 -318 -2 -319 -2
6 37 c8 63 43 145 77 181 97 104 266 136 394 76z"/>
<path d="M12884 9618 c-3 -4 -9 -6 -14 -3 -5 3 -27 1 -47 -4 -21 -6 -42 -11
-48 -12 -38 -8 -157 -88 -195 -133 -70 -82 -127 -214 -133 -307 -1 -22 -5 -39
-9 -39 -4 0 -3 -11 2 -24 5 -13 7 -26 5 -28 -10 -9 -4 -114 8 -168 2 -8 7 -31
11 -50 15 -65 67 -152 124 -209 70 -69 98 -91 117 -91 7 0 17 -4 20 -10 3 -5
36 -19 73 -30 135 -42 293 -40 472 5 33 8 86 26 110 37 25 11 30 19 31 48 1
49 -2 124 -6 128 -2 2 -20 -5 -42 -16 -100 -50 -200 -74 -332 -77 -163 -4
-273 47 -343 160 -14 22 -25 42 -26 45 0 3 -6 18 -12 34 -6 16 -13 53 -16 83
l-6 53 38 0 c22 1 207 1 412 1 338 1 372 3 373 18 3 87 -4 192 -16 231 -3 10
-8 29 -10 42 -10 49 -67 147 -114 195 -49 50 -144 103 -211 119 -48 11 -210
13 -216 2z m230 -177 c49 -24 68 -41 99 -87 20 -31 37 -65 37 -75 0 -10 4 -20
9 -23 5 -4 8 -14 7 -24 -2 -9 0 -29 5 -44 6 -21 4 -28 -9 -32 -9 -2 -155 -4
-323 -4 l-307 0 5 32 c21 148 110 248 248 279 88 20 157 13 229 -22z"/>
<path d="M14624 9618 c-3 -4 -9 -6 -14 -3 -16 10 -135 -38 -183 -75 -64 -49
-151 -164 -149 -197 0 -4 -3 -12 -8 -18 -25 -31 -44 -155 -43 -285 1 -122 21
-219 63 -306 32 -65 114 -164 136 -164 8 0 14 -4 14 -9 0 -9 99 -55 145 -66
25 -6 79 -13 130 -17 35 -2 149 14 186 27 221 78 331 275 324 580 -2 102 -26
222 -52 262 -8 12 -13 23 -12 25 6 7 -54 90 -96 131 -48 48 -144 99 -210 112
-56 12 -225 14 -231 3z m230 -174 c142 -71 210 -276 171 -524 -10 -69 -59
-164 -108 -212 -106 -105 -288 -101 -395 10 -125 128 -145 450 -39 622 77 125
237 170 371 104z"/>
<path d="M15916 9609 c-69 -21 -141 -68 -176 -115 -14 -18 -29 -34 -35 -34 -6
0 -10 30 -10 72 l0 71 -83 0 c-45 0 -85 -3 -89 -7 -10 -9 -10 -866 0 -866 5 0
5 -5 1 -12 -10 -16 -11 -308 -1 -308 5 0 5 -5 1 -12 -13 -20 -10 -289 3 -299
6 -6 47 -9 90 -7 l78 3 2 255 c1 140 2 269 3 285 l1 30 17 -25 c103 -152 325
-205 504 -121 69 33 95 54 149 121 52 65 117 209 104 230 -3 5 -2 11 3 14 15
9 21 206 10 296 -28 214 -162 389 -333 435 -55 15 -178 12 -239 -6z m207 -158
c86 -42 140 -119 174 -246 13 -49 11 -246 -3 -304 -27 -116 -90 -208 -170
-246 -39 -19 -167 -31 -188 -17 -6 3 -15 7 -21 8 -45 8 -116 63 -147 114 -41
67 -64 164 -70 295 -1 24 13 155 18 172 8 23 32 82 46 110 15 31 88 103 105
103 7 0 13 4 13 9 0 13 88 28 148 25 29 -2 72 -12 95 -23z"/>
<path d="M17248 9624 c-2 -1 -19 -6 -38 -9 -77 -14 -181 -87 -227 -161 -10
-16 -12 -11 -13 36 -1 30 -1 67 0 83 1 23 -2 27 -27 28 -35 1 -146 1 -153 0
-7 -1 -4 -1081 3 -1088 5 -5 122 -8 164 -4 9 1 13 93 15 369 l3 367 29 58 c42
84 97 132 173 153 87 23 175 14 223 -24 40 -32 80 -104 87 -159 3 -21 6 -201
6 -400 l2 -363 27 -1 c16 0 42 -1 58 -1 17 0 45 1 63 1 l33 1 -1 323 c0 177 3
345 8 372 28 168 145 270 303 264 121 -5 193 -77 210 -209 3 -25 6 -204 7
-397 l1 -353 28 -1 c15 0 48 -1 73 -1 25 0 53 1 63 1 16 1 17 23 16 364 -3
456 -4 468 -57 576 -24 49 -86 121 -105 121 -6 0 -12 4 -12 8 0 4 -24 17 -52
27 -54 19 -182 25 -242 11 -79 -19 -172 -82 -221 -150 -52 -72 -53 -73 -60
-51 -27 80 -106 161 -185 189 -45 16 -192 31 -202 20z"/>
<path d="M19069 9613 c-191 -39 -343 -192 -384 -388 -3 -14 -8 -37 -11 -52 -8
-36 -8 -198 0 -243 13 -76 17 -90 36 -135 25 -57 74 -131 114 -169 46 -43 141
-102 181 -111 6 -2 28 -8 50 -14 122 -33 289 -28 445 14 64 17 121 39 127 48
7 10 14 167 8 167 -1 0 -23 -9 -49 -20 -25 -12 -47 -20 -48 -19 -2 1 -13 -3
-26 -10 -13 -7 -31 -14 -40 -16 -9 -3 -37 -9 -61 -15 -24 -6 -50 -9 -57 -6 -8
3 -16 2 -18 -3 -8 -12 -175 -6 -224 8 -147 42 -245 168 -256 332 l-2 29 65 0
c36 1 222 1 414 1 l348 1 -5 112 c-3 73 -11 132 -24 174 -11 34 -17 62 -13 62
3 0 1 4 -5 8 -6 4 -21 25 -35 48 -49 82 -104 132 -193 173 -27 12 -64 23 -83
24 -18 1 -33 5 -33 8 0 10 -158 5 -221 -8z m256 -162 c54 -24 106 -75 135
-130 24 -48 29 -66 35 -127 l4 -41 -320 -1 -320 -1 6 36 c14 90 36 137 93 195
27 29 95 73 109 71 1 0 24 5 50 12 62 16 155 9 208 -14z"/>
<path d="M20445 9625 c-5 -2 -36 -8 -67 -15 -32 -7 -58 -16 -58 -19 0 -3 -13
-12 -28 -19 -31 -13 -86 -62 -120 -106 l-22 -29 -1 54 c-1 30 0 66 1 82 2 30
5 29 -103 29 -38 0 -71 -3 -74 -6 -4 -3 -7 -249 -7 -546 -1 -508 0 -540 17
-541 22 -1 87 -1 131 0 l34 1 1 338 c0 207 4 358 11 388 21 91 75 161 160 206
38 19 59 23 130 22 113 -2 114 -2 161 -42 44 -38 77 -102 85 -167 3 -22 6
-199 6 -392 1 -350 2 -353 22 -354 57 -3 146 0 153 4 9 6 8 698 -1 772 -28
212 -152 333 -351 340 -38 1 -74 1 -80 0z"/>
<path d="M11227 9602 c-9 -2 -17 -6 -17 -9 0 -7 135 -375 150 -408 5 -11 32
-83 60 -160 29 -77 55 -149 60 -160 10 -26 60 -156 101 -267 l32 -88 51 -1
c28 0 83 -1 123 -2 75 -2 73 -3 88 48 5 18 88 233 124 322 12 28 21 59 21 67
0 9 5 16 12 16 6 0 9 3 5 6 -3 4 1 23 9 43 9 20 26 66 39 103 13 36 30 81 38
100 8 18 29 74 46 123 18 50 37 101 43 115 7 14 12 28 14 33 1 4 2 8 4 10 1 1
3 9 5 17 2 8 10 32 19 53 19 43 28 39 -96 39 -78 0 -84 -3 -93 -42 -4 -17 -10
-30 -14 -30 -4 0 -8 -6 -8 -12 0 -11 -63 -185 -96 -268 -6 -14 -11 -27 -11
-30 -1 -3 -7 -21 -15 -40 -41 -109 -53 -142 -57 -155 -5 -23 -126 -335 -129
-335 -2 0 -19 44 -62 165 -13 39 -28 79 -33 90 -9 21 -19 50 -100 270 -28 77
-55 149 -60 160 -5 11 -26 66 -46 123 -25 69 -43 102 -53 103 -67 3 -140 3
-154 1z"/>
</g>
</svg>
